<svg id="svg" version="1.1" xmlns="http://www.w3.org/2000/svg" xmlns:xlink="http://www.w3.org/1999/xlink" width="400" height="400" viewBox="0, 0, 400,400"><g id="svgg"><path id="path0" d="M0.000 200.000 L 0.000 400.000 200.000 400.000 L 400.000 400.000 400.000 200.000 L 400.000 0.000 200.000 0.000 L 0.000 0.000 0.000 200.000 M92.500 158.119 C 93.233 158.204,94.808 158.445,96.000 158.656 C 97.192 158.866,98.467 159.088,98.833 159.149 C 99.200 159.210,101.300 159.834,103.500 160.534 C 105.700 161.235,107.575 161.819,107.667 161.831 C 108.256 161.911,114.333 165.009,114.331 165.229 C 114.330 165.378,114.038 165.941,113.683 166.479 C 113.328 167.018,113.113 167.580,113.205 167.729 C 113.297 167.878,113.205 168.000,113.000 168.000 C 112.795 168.000,112.712 168.137,112.816 168.305 C 112.919 168.473,112.875 168.660,112.718 168.722 C 112.561 168.783,111.485 170.708,110.328 173.000 C 107.312 178.973,107.298 179.000,107.149 179.000 C 107.074 179.000,105.548 178.420,103.757 177.711 C 99.895 176.184,98.590 175.765,96.923 175.521 C 96.239 175.421,95.039 175.200,94.256 175.030 C 90.810 174.283,84.650 174.598,77.509 175.885 C 76.389 176.087,72.629 177.945,72.255 178.482 C 72.120 178.675,72.008 178.708,72.005 178.555 C 71.991 177.802,66.538 182.712,64.846 185.000 C 62.728 187.865,61.671 190.357,60.745 194.667 C 57.704 208.824,66.679 222.370,80.771 224.894 C 87.128 226.033,101.644 224.200,103.333 222.046 C 103.425 221.929,103.725 221.784,104.000 221.724 C 104.275 221.665,105.713 221.048,107.195 220.355 L 109.890 219.095 110.319 220.131 C 110.555 220.701,110.801 221.406,110.865 221.700 C 110.928 221.993,111.299 222.968,111.687 223.866 C 112.076 224.765,113.042 227.225,113.835 229.333 C 114.627 231.442,115.368 233.399,115.481 233.684 C 115.635 234.070,115.159 234.449,113.594 235.184 C 112.442 235.724,111.450 236.279,111.389 236.417 C 111.328 236.554,111.070 236.667,110.816 236.667 C 110.562 236.667,109.862 236.942,109.260 237.278 C 108.659 237.615,107.783 237.985,107.314 238.102 C 106.845 238.219,105.870 238.561,105.147 238.863 C 104.425 239.165,103.798 239.400,103.755 239.386 C 103.711 239.371,103.036 239.586,102.255 239.862 C 100.141 240.610,97.652 241.152,94.833 241.476 C 87.665 242.302,85.964 242.370,81.833 241.998 C 76.418 241.509,71.514 240.543,68.618 239.393 C 68.132 239.200,67.645 239.133,67.534 239.244 C 67.424 239.354,67.333 239.269,67.333 239.056 C 67.333 238.842,67.168 238.667,66.965 238.667 C 66.763 238.667,65.875 238.304,64.993 237.861 C 64.111 237.418,63.301 237.143,63.194 237.250 C 63.088 237.357,63.000 237.288,63.000 237.096 C 63.000 236.904,62.512 236.552,61.917 236.313 C 61.321 236.074,60.409 235.531,59.891 235.106 C 59.373 234.681,58.812 234.333,58.645 234.333 C 58.006 234.333,50.672 227.390,50.663 226.776 C 50.660 226.624,50.098 225.883,49.413 225.129 C 48.078 223.660,47.611 222.898,45.662 219.000 C 44.511 216.697,43.100 212.933,42.477 210.500 C 42.336 209.950,42.198 209.425,42.171 209.333 C 41.962 208.641,41.575 202.583,41.575 200.003 C 41.575 196.208,42.148 191.590,42.982 188.667 C 43.218 187.842,43.445 187.017,43.487 186.833 C 43.530 186.650,43.737 186.078,43.949 185.562 C 44.160 185.046,44.333 184.571,44.333 184.508 C 44.333 183.816,47.151 178.629,48.542 176.761 C 49.527 175.437,50.333 174.286,50.333 174.203 C 50.333 174.119,50.799 173.552,51.369 172.942 C 54.177 169.936,55.591 168.555,56.541 167.892 C 57.113 167.493,58.538 166.503,59.708 165.692 C 60.877 164.880,61.908 164.115,62.000 163.991 C 63.135 162.454,74.956 158.734,80.667 158.116 C 81.675 158.007,82.536 157.888,82.580 157.851 C 82.721 157.734,91.123 157.960,92.500 158.119 M172.500 158.454 C 178.242 159.255,185.678 161.289,189.900 163.214 C 190.854 163.648,192.016 164.149,192.484 164.327 C 193.449 164.694,193.579 165.509,192.808 166.361 C 192.519 166.680,192.243 167.142,192.194 167.387 C 192.145 167.633,190.871 170.346,189.363 173.417 C 186.210 179.837,187.099 179.365,181.750 177.459 C 180.054 176.855,178.667 176.447,178.667 176.554 C 178.667 176.661,178.479 176.593,178.250 176.404 C 178.021 176.215,177.233 175.951,176.500 175.819 C 175.767 175.687,174.867 175.515,174.500 175.436 C 168.969 174.252,157.937 174.504,154.667 175.888 C 154.392 176.005,153.879 176.156,153.527 176.223 C 150.621 176.783,141.128 184.191,141.840 185.344 C 141.950 185.522,141.913 185.667,141.758 185.667 C 141.397 185.667,140.207 187.665,140.564 187.672 C 140.712 187.675,140.674 187.787,140.479 187.922 C 140.069 188.205,138.751 191.440,138.545 192.667 C 138.469 193.125,138.210 194.175,137.971 195.000 C 136.782 199.105,138.173 210.554,140.094 212.475 C 140.385 212.766,140.729 213.341,140.859 213.752 C 141.161 214.704,142.509 216.553,143.817 217.808 C 145.227 219.159,148.005 221.333,148.323 221.333 C 148.468 221.333,149.450 221.854,150.507 222.490 C 151.564 223.127,152.557 223.568,152.714 223.471 C 152.871 223.373,153.000 223.437,153.000 223.611 C 153.000 224.790,166.039 225.762,170.667 224.929 C 172.612 224.578,175.030 223.924,176.641 223.313 L 178.167 222.734 178.254 211.164 L 178.342 199.594 186.754 199.833 C 191.381 199.964,195.202 200.103,195.244 200.141 C 195.287 200.180,195.383 207.508,195.458 216.427 L 195.595 232.644 192.714 234.432 C 182.664 240.669,167.750 243.503,155.500 241.504 C 153.667 241.204,151.792 240.908,151.333 240.845 C 150.163 240.684,146.501 239.416,144.383 238.439 C 143.402 237.986,142.278 237.554,141.884 237.478 C 141.491 237.402,141.118 237.188,141.057 237.003 C 140.995 236.818,140.726 236.667,140.458 236.667 C 140.191 236.667,139.650 236.367,139.257 236.000 C 138.863 235.633,138.344 235.333,138.104 235.333 C 137.863 235.333,137.667 235.216,137.667 235.072 C 137.667 234.928,137.179 234.528,136.583 234.183 C 133.854 232.602,128.055 226.986,125.894 223.833 C 124.703 222.096,121.563 216.136,121.591 215.667 C 121.596 215.575,121.434 215.200,121.229 214.833 C 121.024 214.467,120.833 214.054,120.803 213.917 C 120.774 213.779,120.720 213.629,120.683 213.583 C 120.646 213.537,120.565 213.275,120.503 213.000 C 120.441 212.725,120.158 211.525,119.874 210.333 C 118.405 204.164,118.225 196.449,119.449 192.083 C 119.719 191.121,119.860 190.333,119.762 190.333 C 119.665 190.333,119.744 190.142,119.938 189.908 C 120.132 189.675,120.344 189.080,120.410 188.588 C 120.476 188.095,120.636 187.586,120.765 187.457 C 120.894 187.328,121.000 186.902,121.000 186.511 C 121.000 186.120,121.125 185.657,121.278 185.483 C 121.646 185.065,122.830 181.903,122.738 181.583 C 122.699 181.446,122.826 181.333,123.020 181.333 C 123.214 181.333,123.291 181.201,123.191 181.039 C 123.091 180.877,123.307 180.366,123.671 179.903 C 124.035 179.440,124.333 178.949,124.333 178.812 C 124.333 178.675,124.716 178.061,125.184 177.448 C 125.651 176.835,125.945 176.333,125.837 176.333 C 125.079 176.333,133.969 167.583,136.167 166.166 C 137.267 165.457,138.242 164.788,138.333 164.679 C 138.425 164.571,139.137 164.200,139.917 163.857 C 140.696 163.513,141.333 163.105,141.333 162.949 C 141.333 162.794,141.540 162.667,141.793 162.667 C 142.046 162.667,143.133 162.280,144.210 161.807 C 147.133 160.522,147.427 160.407,148.333 160.187 C 148.792 160.076,150.625 159.609,152.408 159.149 C 154.191 158.689,156.741 158.224,158.075 158.117 C 159.409 158.009,160.547 157.880,160.604 157.829 C 160.898 157.567,169.311 158.010,172.500 158.454 M272.333 166.333 L 272.333 174.000 259.168 174.000 L 246.003 174.000 245.918 207.583 L 245.833 241.167 236.750 241.255 L 227.667 241.344 227.667 207.672 L 227.667 174.000 214.167 174.000 L 200.667 174.000 200.667 166.333 L 200.667 158.667 236.500 158.667 L 272.333 158.667 272.333 166.333 M302.196 165.250 C 305.258 168.871,308.037 172.133,308.372 172.500 C 309.131 173.330,311.055 175.612,314.963 180.317 C 315.946 181.500,317.143 182.872,317.625 183.366 C 318.106 183.861,318.875 184.747,319.333 185.334 C 319.792 185.922,320.322 186.575,320.511 186.785 C 320.701 186.995,321.601 188.083,322.511 189.203 C 325.214 192.527,331.018 199.423,332.018 200.500 C 332.529 201.050,333.334 201.919,333.807 202.432 C 334.280 202.944,334.667 203.507,334.667 203.682 C 334.667 203.857,334.786 204.000,334.932 204.000 C 335.077 204.000,335.746 204.713,336.417 205.583 C 338.082 207.742,340.131 210.000,340.425 210.000 C 340.558 210.000,340.667 198.450,340.667 184.333 L 340.667 158.667 350.000 158.667 L 359.333 158.667 359.333 200.000 L 359.333 241.333 351.653 241.333 C 343.001 241.333,343.951 241.610,341.344 238.333 C 340.541 237.325,339.543 236.125,339.125 235.667 C 338.708 235.208,337.353 233.633,336.115 232.167 C 334.877 230.700,333.595 229.257,333.266 228.961 C 332.936 228.664,332.664 228.289,332.662 228.128 C 332.659 227.966,331.834 226.947,330.828 225.863 C 329.823 224.780,328.998 223.805,328.996 223.696 C 328.994 223.588,328.429 222.900,327.741 222.167 C 327.052 221.433,325.688 219.858,324.709 218.667 C 323.731 217.475,322.271 215.798,321.465 214.941 C 320.659 214.083,320.000 213.289,320.000 213.176 C 320.000 213.063,319.487 212.415,318.860 211.735 C 318.234 211.056,317.380 210.050,316.963 209.500 C 316.546 208.950,315.672 207.892,315.019 207.149 C 313.623 205.557,312.754 204.536,310.500 201.832 C 309.583 200.733,308.758 199.758,308.667 199.667 C 308.575 199.575,307.607 198.450,306.515 197.167 C 305.423 195.883,304.336 194.608,304.099 194.333 C 303.863 194.058,302.826 192.821,301.796 191.583 C 300.765 190.346,299.790 189.333,299.628 189.333 C 299.460 189.333,299.333 200.521,299.333 215.333 L 299.333 241.333 290.333 241.333 L 281.333 241.333 281.333 200.000 L 281.333 158.667 288.981 158.667 L 296.630 158.667 302.196 165.250 " stroke="none" fill="#c4ac64" fill-rule="evenodd"></path><path id="path1" d="M245.748 207.578 L 245.667 240.989 236.583 241.084 L 227.500 241.178 236.594 241.256 C 243.620 241.316,245.724 241.239,245.846 240.917 C 245.934 240.688,245.966 225.575,245.918 207.333 L 245.830 174.167 245.748 207.578 M285.750 241.249 C 288.271 241.306,292.396 241.306,294.917 241.249 C 297.438 241.193,295.375 241.146,290.333 241.146 C 285.292 241.146,283.229 241.193,285.750 241.249 M347.602 241.249 C 349.859 241.307,353.459 241.307,355.602 241.249 C 357.746 241.191,355.900 241.144,351.500 241.144 C 347.100 241.144,345.346 241.191,347.602 241.249 " stroke="none" fill="#c4b464" fill-rule="evenodd"></path><path id="path2" d="" stroke="none" fill="#c8ac64" fill-rule="evenodd"></path><path id="path3" d="" stroke="none" fill="#c8ac64" fill-rule="evenodd"></path><path id="path4" d="" stroke="none" fill="#c8ac64" fill-rule="evenodd"></path></g></svg>