<?xml version="1.0" encoding="UTF-8"?>
<!DOCTYPE svg PUBLIC "-//W3C//DTD SVG 1.1//EN" "http://www.w3.org/Graphics/SVG/1.1/DTD/svg11.dtd">
<svg xmlns="http://www.w3.org/2000/svg" version="1.1" width="252px" height="331px" style="shape-rendering:geometricPrecision; text-rendering:geometricPrecision; image-rendering:optimizeQuality; fill-rule:evenodd; clip-rule:evenodd" xmlns:xlink="http://www.w3.org/1999/xlink">
<g><path style="opacity:0.981" fill="#3eb033" d="M 199.5,-0.5 C 199.833,-0.5 200.167,-0.5 200.5,-0.5C 201.582,38.5636 185.582,68.3969 152.5,89C 129.167,101.333 105.833,113.667 82.5,126C 67.0019,135.167 52.3352,145.5 38.5,157C 15.5708,180.762 3.73747,209.262 3,242.5C 1.32991,238.566 0.163245,234.566 -0.5,230.5C -0.5,219.833 -0.5,209.167 -0.5,198.5C 6.2973,160.401 25.964,130.901 58.5,110C 82.8447,95.826 107.511,82.1593 132.5,69C 161.819,52.5154 184.152,29.3487 199.5,-0.5 Z"/></g>
<g><path style="opacity:0.976" fill="#003f8f" d="M 120.5,330.5 C 109.5,330.5 98.5,330.5 87.5,330.5C 44.7,320.866 18.8667,294.533 10,251.5C 7.01876,224.752 13.6854,200.752 30,179.5C 45.2786,161.788 63.1119,147.288 83.5,136C 108.202,123.327 132.869,110.66 157.5,98C 170.231,89.7719 181.231,79.6052 190.5,67.5C 193.228,83.9237 189.394,98.5904 179,111.5C 172.099,119.072 164.599,125.905 156.5,132C 140.334,142.251 124,152.251 107.5,162C 92.9962,171.181 80.1629,182.347 69,195.5C 53.2268,218.161 52.5601,241.161 67,264.5C 80.3856,279.517 96.8856,284.684 116.5,280C 132.368,274.799 142.868,264.299 148,248.5C 148.868,227.271 138.702,215.271 117.5,212.5C 101.67,214.495 91.5036,223.161 87,238.5C 77.4007,217.295 81.5674,199.128 99.5,184C 111.731,175.466 124.731,168.132 138.5,162C 147.066,156.769 155.066,150.769 162.5,144C 163.332,143.312 163.998,143.479 164.5,144.5C 161.154,158.039 154.154,169.206 143.5,178C 172.035,181.536 190.535,197.036 199,224.5C 202.896,268.542 185.396,301.042 146.5,322C 138.017,325.773 129.35,328.606 120.5,330.5 Z"/></g>
</svg>
